<?xml version="1.0" encoding="UTF-8" standalone="no"?>
<!-- Created with Inkscape (http://www.inkscape.org/) -->

<svg
   width="150"
   height="150"
   viewBox="0 0 39.6875 39.6875"
   version="1.1"
   id="svg5"
   inkscape:version="1.2.1 (9c6d41e4, 2022-07-14)"
   sodipodi:docname="08.svg"
   xmlns:inkscape="http://www.inkscape.org/namespaces/inkscape"
   xmlns:sodipodi="http://sodipodi.sourceforge.net/DTD/sodipodi-0.dtd"
   xmlns="http://www.w3.org/2000/svg"
   xmlns:svg="http://www.w3.org/2000/svg">
  <sodipodi:namedview
     id="namedview7"
     pagecolor="#ffffff"
     bordercolor="#666666"
     borderopacity="1.0"
     inkscape:pageshadow="2"
     inkscape:pageopacity="0.0"
     inkscape:pagecheckerboard="0"
     inkscape:document-units="mm"
     showgrid="false"
     width="50mm"
     units="px"
     inkscape:zoom="3.9444318"
     inkscape:cx="73.521363"
     inkscape:cy="60.718505"
     inkscape:window-width="1374"
     inkscape:window-height="903"
     inkscape:window-x="275"
     inkscape:window-y="70"
     inkscape:window-maximized="0"
     inkscape:current-layer="layer1"
     inkscape:snap-global="false"
     inkscape:showpageshadow="2"
     inkscape:deskcolor="#d1d1d1"
     showguides="true">
    <sodipodi:guide
       position="27.501849,1.9898439"
       orientation="0,-1"
       id="guide17163"
       inkscape:locked="false" />
    <sodipodi:guide
       position="18.848828,37.876403"
       orientation="0,-1"
       id="guide17165"
       inkscape:locked="false" />
  </sodipodi:namedview>
  <defs
     id="defs2">
    <inkscape:perspective
       sodipodi:type="inkscape:persp3d"
       inkscape:vp_x="0 : 19.84375 : 1"
       inkscape:vp_y="0 : 1000 : 0"
       inkscape:vp_z="39.6875 : 19.84375 : 1"
       inkscape:persp3d-origin="19.84375 : 13.229167 : 1"
       id="perspective14328" />
  </defs>
  <g
     inkscape:label="Layer 1"
     inkscape:groupmode="layer"
     id="layer1">
    <path
       id="path20931"
       style="opacity:1;fill:#00d0ff;fill-opacity:1;stroke:#000000;stroke-width:2;stroke-linecap:butt;stroke-linejoin:round;stroke-dasharray:none;paint-order:stroke fill markers"
       d="m 6.7845988,13.974343 c -1.7804076,0 -3.2137573,1.43335 -3.2137573,3.213758 v 1.206128 0.64854 2.077909 c 0,1.780408 1.4333497,3.213757 3.2137573,3.213757 H 32.851742 c 1.780407,0 3.213757,-1.433349 3.213757,-3.213757 v -2.077909 -0.64854 -1.206128 c 0,-1.780408 -1.43335,-3.213758 -3.213757,-3.213758 z" />
    <path
       d="m 14.320746,17.134797 h 1.242073 q 0.508708,0 0.71529,0.0943 0.206582,0.0943 0.348607,0.332675 0.142025,0.238374 0.142025,0.539615 0,0.277666 -0.121367,0.502943 -0.121367,0.222656 -0.315037,0.330055 0.276303,0.09954 0.431239,0.340534 0.157519,0.240993 0.157519,0.586766 0,0.419119 -0.198835,0.709882 -0.198835,0.288144 -0.469973,0.356251 -0.188507,0.04715 -0.875392,0.04715 h -1.056149 z m 0.62491,0.639155 v 0.888008 h 0.413163 q 0.371848,0 0.459646,-0.0131 0.1601,-0.02619 0.25048,-0.136214 0.09038,-0.112638 0.09038,-0.30386 0,-0.170267 -0.07488,-0.275047 -0.07231,-0.107399 -0.178183,-0.133594 -0.10329,-0.02619 -0.599087,-0.02619 z m 0,1.527164 v 1.02684 h 0.581011 q 0.382177,0 0.490632,-0.03929 0.108456,-0.04191 0.180759,-0.159789 0.07488,-0.120496 0.07488,-0.303861 0,-0.188603 -0.08006,-0.3091 -0.07747,-0.123116 -0.209164,-0.167647 -0.129114,-0.04715 -0.531948,-0.04715 z"
       id="path4964"
       style="font-weight:bold;font-size:5.32647px;line-height:1.03;font-family:'Arial Narrow';-inkscape-font-specification:'Arial Narrow Bold';text-align:center;text-anchor:middle;fill:#000000;stroke:none;stroke-width:1.50986;stroke-linejoin:round;paint-order:stroke fill markers" />
    <path
       d="m 21.307979,20.974971 h -0.68172 L 20.35512,20.10268 h -1.239491 l -0.255645,0.872291 h -0.666227 l 1.208504,-3.840174 h 0.663645 z m -1.154277,-1.519305 -0.426074,-1.425003 -0.420911,1.425003 z"
       id="path4966"
       style="font-weight:bold;font-size:5.32647px;line-height:1.03;font-family:'Arial Narrow';-inkscape-font-specification:'Arial Narrow Bold';text-align:center;text-anchor:middle;fill:#000000;stroke:none;stroke-width:1.50986;stroke-linejoin:round;paint-order:stroke fill markers" />
    <path
       d="m 22.699426,20.974971 v -3.840174 h 1.319541 q 0.506126,0 0.723037,0.104779 0.216911,0.10216 0.356354,0.358871 0.139442,0.25409 0.139442,0.610341 0,0.450552 -0.214329,0.725599 -0.211746,0.275047 -0.604252,0.345773 0.201418,0.146691 0.333113,0.322197 0.131697,0.172887 0.358937,0.623439 l 0.377012,0.749175 h -0.746277 l -0.45448,-0.835618 q -0.245316,-0.453172 -0.333114,-0.56581 -0.0878,-0.115258 -0.185923,-0.15717 -0.09812,-0.04453 -0.315038,-0.04453 h -0.129114 v 1.603129 z m 0.624909,-2.21609 h 0.46481 q 0.426075,0 0.542277,-0.03667 0.116202,-0.03929 0.188506,-0.15455 0.0723,-0.115257 0.0723,-0.30648 0,-0.183365 -0.0723,-0.293383 -0.0723,-0.112638 -0.196253,-0.15455 -0.0878,-0.02881 -0.508708,-0.02881 h -0.490632 z"
       id="path4968"
       style="font-weight:bold;font-size:5.32647px;line-height:1.03;font-family:'Arial Narrow';-inkscape-font-specification:'Arial Narrow Bold';text-align:center;text-anchor:middle;fill:#000000;stroke:none;stroke-width:1.50986;stroke-linejoin:round;paint-order:stroke fill markers" />
  </g>
</svg>
