<?xml version="1.0" encoding="UTF-8" standalone="no"?>
<!-- Created with Inkscape (http://www.inkscape.org/) -->

<svg
   width="50mm"
   height="50mm"
   viewBox="0 0 50 50"
   version="1.1"
   id="svg5"
   xml:space="preserve"
   inkscape:version="1.2.1 (9c6d41e4, 2022-07-14)"
   sodipodi:docname="bio.svg"
   xmlns:inkscape="http://www.inkscape.org/namespaces/inkscape"
   xmlns:sodipodi="http://sodipodi.sourceforge.net/DTD/sodipodi-0.dtd"
   xmlns="http://www.w3.org/2000/svg"
   xmlns:svg="http://www.w3.org/2000/svg"><sodipodi:namedview
     id="namedview7"
     pagecolor="#ffffff"
     bordercolor="#000000"
     borderopacity="0.25"
     inkscape:showpageshadow="2"
     inkscape:pageopacity="0.0"
     inkscape:pagecheckerboard="0"
     inkscape:deskcolor="#d1d1d1"
     inkscape:document-units="mm"
     showgrid="false"
     inkscape:zoom="1.5431723"
     inkscape:cx="194.40474"
     inkscape:cy="130.57518"
     inkscape:window-width="1528"
     inkscape:window-height="717"
     inkscape:window-x="0"
     inkscape:window-y="38"
     inkscape:window-maximized="0"
     inkscape:current-layer="layer1"
     showguides="true"><sodipodi:guide
       position="109.90213,56.858167"
       orientation="1,0"
       id="guide3505"
       inkscape:locked="false" /></sodipodi:namedview><defs
     id="defs2" /><g
     inkscape:label="Layer 1"
     inkscape:groupmode="layer"
     id="layer1"><rect
       style="fill:#000000;stroke-width:2;stroke-linejoin:round;paint-order:stroke fill markers"
       id="rect5890"
       width="50.064621"
       height="50.236073"
       x="-0.17145418"
       y="0"
       rx="0"
       ry="0" /><circle
       style="fill:#ffffff;stroke-width:0.835065;stroke-linejoin:round;paint-order:stroke fill markers"
       id="path5831"
       cx="24.628851"
       cy="24.960432"
       r="10.344414" /><path
       id="rect2435"
       style="fill:#ffffff;stroke-width:1.97116;stroke-linejoin:round;paint-order:stroke fill markers"
       d="M 2.1314766,2.3572145 V 10.173356 H 4.3409518 V 4.5558879 H 10.0576 V 2.3572145 Z m 38.0280124,0 v 2.1986734 h 5.716649 v 5.6174681 h 2.209475 V 2.3572145 Z M 2.1314766,40.275245 v 7.816141 H 10.0576 V 45.892712 H 4.3409518 v -5.617467 z m 43.7446614,0 v 5.617467 h -5.716649 v 2.198674 h 7.926124 v -7.816141 z" /><path
       id="path2500"
       style="fill:#ffffff;stroke-width:2.67236;stroke-linejoin:round;paint-order:stroke fill markers"
       d="m 24.549302,11.199043 c -6.712139,0.06701 -13.242941,4.577847 -20.2147332,13.331973 -0.3942479,0.422356 -0.3325028,0.181401 0.00736,0.61718 13.9458482,17.832601 26.1272032,18.35619 41.5302762,-0.01817 0.43412,-0.435842 0.339577,-0.192218 -0.06285,-0.663824 C 38.128771,15.491803 31.248358,11.132168 24.549302,11.199043 Z m 0.0874,2.140736 c 5.656832,-0.05647 11.466574,3.624832 17.952231,11.203021 0.339819,0.398235 0.419609,0.19268 0.05303,0.560715 C 29.635258,40.619229 19.348864,40.176982 7.5726773,25.118737 7.2856885,24.750754 7.2338737,24.953947 7.5667854,24.5973 13.453923,17.205121 18.968819,13.39636 24.636699,13.339779 Z" /><path
       id="rect3616"
       style="fill:#000000;stroke-width:1.90026;stroke-linejoin:round;paint-order:stroke fill markers"
       d="m 24.639154,16.638279 c -1.808545,0 -3.264622,1.456077 -3.264622,3.264623 v 1.081661 h -0.428147 c -1.185933,0 -2.140736,0.954803 -2.140736,2.140736 v 6.849864 c 0,1.185932 0.954803,2.140735 2.140736,2.140735 h 7.492085 c 1.185932,0 2.140735,-0.954803 2.140735,-2.140735 v -6.849864 c 0,-1.185933 -0.954803,-2.140736 -2.140735,-2.140736 h -0.535185 v -1.081661 c 0,-1.808546 -1.455586,-3.264623 -3.264131,-3.264623 z m 0,1.712589 c 1.015759,0 1.833373,0.978674 1.833373,2.194255 0,0.150577 -0.01291,0.297543 -0.03682,0.43944 h -3.593588 c -0.02393,-0.141897 -0.03683,-0.288863 -0.03683,-0.43944 0,-1.215581 0.818106,-2.194255 1.833865,-2.194255 z" /></g></svg>
