<?xml version="1.0" encoding="UTF-8" standalone="no"?>
<!-- Created with Inkscape (http://www.inkscape.org/) -->

<svg
   width="299mm"
   height="210mm"
   viewBox="0 0 299 210"
   version="1.1"
   id="svg5"
   xml:space="preserve"
   inkscape:version="1.2.1 (9c6d41e4, 2022-07-14)"
   sodipodi:docname="overlay.svg"
   xmlns:inkscape="http://www.inkscape.org/namespaces/inkscape"
   xmlns:sodipodi="http://sodipodi.sourceforge.net/DTD/sodipodi-0.dtd"
   xmlns:xlink="http://www.w3.org/1999/xlink"
   xmlns="http://www.w3.org/2000/svg"
   xmlns:svg="http://www.w3.org/2000/svg"><sodipodi:namedview
     id="namedview7"
     pagecolor="#ffffff"
     bordercolor="#000000"
     borderopacity="0.25"
     inkscape:showpageshadow="2"
     inkscape:pageopacity="0.0"
     inkscape:pagecheckerboard="0"
     inkscape:deskcolor="#d1d1d1"
     inkscape:document-units="mm"
     showgrid="false"
     inkscape:zoom="0.51093076"
     inkscape:cx="557.80553"
     inkscape:cy="354.25544"
     inkscape:window-width="1728"
     inkscape:window-height="1014"
     inkscape:window-x="0"
     inkscape:window-y="38"
     inkscape:window-maximized="1"
     inkscape:current-layer="layer1"
     showguides="true"><sodipodi:guide
       position="72.230303,178.76527"
       orientation="0,-1"
       id="guide12891"
       inkscape:locked="false" /><sodipodi:guide
       position="137.30265,54.151734"
       orientation="0,-1"
       id="guide13619"
       inkscape:locked="false" /></sodipodi:namedview><defs
     id="defs2"><linearGradient
       inkscape:collect="always"
       id="linearGradient13625"><stop
         style="stop-color:#000000;stop-opacity:1;"
         offset="0"
         id="stop13621" /><stop
         style="stop-color:#000000;stop-opacity:1;"
         offset="0.44051448"
         id="stop13627" /><stop
         style="stop-color:#000000;stop-opacity:0;"
         offset="1"
         id="stop13623" /></linearGradient><linearGradient
       inkscape:collect="always"
       id="linearGradient3916"><stop
         style="stop-color:#000000;stop-opacity:1;"
         offset="0"
         id="stop3912" /><stop
         style="stop-color:#000000;stop-opacity:1;"
         offset="0.31832796"
         id="stop13629" /><stop
         style="stop-color:#000000;stop-opacity:0;"
         offset="1"
         id="stop3914" /></linearGradient><linearGradient
       inkscape:collect="always"
       xlink:href="#linearGradient3916"
       id="linearGradient3918"
       x1="-0.3253617"
       y1="16.105406"
       x2="298.03134"
       y2="16.105406"
       gradientUnits="userSpaceOnUse"
       gradientTransform="matrix(0.26717555,0,0,9.5894738,0.466127,-5.9147398)" /><linearGradient
       inkscape:collect="always"
       xlink:href="#linearGradient13625"
       id="linearGradient3934"
       gradientUnits="userSpaceOnUse"
       gradientTransform="matrix(0.35441652,0,0,9.5894738,-210.53833,-5.9147398)"
       x1="-0.3253617"
       y1="16.105406"
       x2="298.03134"
       y2="16.105406" /></defs><g
     inkscape:label="Layer 1"
     inkscape:groupmode="layer"
     id="layer1"><g
       id="g20811"
       transform="matrix(1.0098275,0,0,1,-0.00319745,0)"><rect
         style="fill:url(#linearGradient3918);fill-opacity:1;stroke-width:3.20129;stroke-linejoin:round;paint-order:stroke fill markers"
         id="rect3887"
         width="79.713615"
         height="296.40454"
         x="0.37919733"
         y="0.32535914"
         transform="matrix(0,1,1,0,0,0)" /><rect
         style="fill:url(#linearGradient3934);fill-opacity:1;stroke-width:3.6871;stroke-linejoin:round;paint-order:stroke fill markers"
         id="rect3928"
         width="105.74255"
         height="296.40454"
         x="-210.65366"
         y="0.32535914"
         transform="rotate(-90)" /></g><path
       id="rect23800"
       style="fill:#ffffff;fill-opacity:1;stroke-width:2.0042;stroke-linejoin:round;paint-order:stroke fill markers"
       d="M 0,0 V 210.60265 H 299.04117 V 0 Z m 10.181449,34.081124 h 54.688456 c 4.190052,0 7.563451,3.377453 7.563451,7.573181 V 146.51922 c 0,4.19574 -3.373399,7.57318 -7.563451,7.57318 H 10.181449 c -4.1900494,0 -7.5634505,-3.37744 -7.5634505,-7.57318 V 41.654305 c 0,-4.195728 3.3734011,-7.573181 7.5634505,-7.573181 z m 74.511551,0 h 54.68845 c 4.19007,0 7.56346,3.377449 7.56346,7.573181 V 146.51922 c 0,4.19574 -3.37339,7.57318 -7.56346,7.57318 H 84.693 c -4.190054,0 -7.563451,-3.37744 -7.563451,-7.57318 V 41.654305 c 0,-4.195732 3.373397,-7.573181 7.563451,-7.573181 z m 74.51155,0 H 213.893 c 4.19007,0 7.56346,3.377445 7.56346,7.573181 V 146.51922 c 0,4.19574 -3.37339,7.57318 -7.56346,7.57318 h -54.68845 c -4.19006,0 -7.56345,-3.37744 -7.56345,-7.57318 V 41.654305 c 0,-4.195736 3.37339,-7.573181 7.56345,-7.573181 z m 74.51155,0 h 54.68846 c 4.19006,0 7.56345,3.377441 7.56345,7.573181 V 146.51922 c 0,4.19574 -3.37339,7.57318 -7.56345,7.57318 H 233.7161 c -4.19007,0 -7.56344,-3.37744 -7.56344,-7.57318 V 41.654305 c 0,-4.19574 3.37337,-7.573181 7.56344,-7.573181 z" /><rect
       style="fill:#000000;fill-opacity:1;stroke-width:0.852199;stroke-linejoin:round;paint-order:stroke fill markers"
       id="rect26005"
       width="299.07095"
       height="0.41826877"
       x="0.014919715"
       y="95.727211"
       rx="0"
       ry="0" /></g></svg>
